# xmcd CD database file
#
# Track frame offsets:
#	150
#	22012
#	39677
#	61417
#	76997
#	96737
#	116477
#	147327
#	166700
#	186822
#
# Disc length: 2785 seconds
#
# Revision: 2
# Processed by: cddbd v1.4b41PL1 Copyright (c) Steve Scherf et al.
# Submitted via: Feurio! 1.60 - http://www.feurio.com
#
DISCID=800adf0a,870adf0a
DTITLE=Moody Blues - The Other Side Of Life
DYEAR=1900
DGENRE=
TTITLE0=Your Wildest Dream
TTITLE1=Talkin' Talkin'
TTITLE2=Rock 'N' Roll Over You
TTITLE3=I Just Don't Care
TTITLE4=Running Out Of Love
TTITLE5=Running Out Of Love
TTITLE6=The Other Side Of Life
TTITLE7=The Spirit
TTITLE8=Slings And Arrows
TTITLE9=It May Be A Fire
EXTD=
EXTT0=
EXTT1=
EXTT2=
EXTT3=
EXTT4=
EXTT5=
EXTT6=
EXTT7=
EXTT8=
EXTT9=
PLAYORDER=
